<?xml version="1.0" encoding="UTF-8"?>
<svg id="Layer_1" data-name="Layer 1" xmlns="http://www.w3.org/2000/svg" viewBox="0 0 571.15 472.05">
  <defs>
    <style>
      .cls-1 {
        fill: #121110;
      }

      .cls-1, .cls-2, .cls-3, .cls-4, .cls-5, .cls-6, .cls-7, .cls-8 {
        stroke-width: 0px;
      }

      .cls-2 {
        fill: #191717;
      }

      .cls-3 {
        fill: #a67f2e;
      }

      .cls-4 {
        fill: #a67f2d;
      }

      .cls-5 {
        fill: #010101;
      }

      .cls-6 {
        fill: #0d0c0c;
      }

      .cls-7 {
        fill: #151413;
      }

      .cls-8 {
        fill: #030303;
      }
    </style>
  </defs>
  <path class="cls-5" d="M215.82,359.21c-3.83,6.32-7.66,12.64-11.5,18.95-12.4,20.39-24.79,40.78-37.19,61.17-5.88,9.67-11.77,19.35-17.65,29.02-.21.35-.42.7-.65,1.04-.24.36-.58.54-1.03.53-.47-.02-.95,0-1.42,0-48.1,0-96.2,0-144.3-.02-.69,0-1.66.44-2.03-.31-.28-.56.48-1.18.82-1.74,10.42-17.15,20.84-34.3,31.27-51.44,12.79-21.03,25.58-42.05,38.36-63.08,14.27-23.46,28.53-46.92,42.79-70.38,9.05-14.89,18.1-29.78,27.16-44.66.31-.51.65-1,1.04-1.6.57.35.77.86,1.04,1.29,4.16,6.83,8.31,13.67,12.47,20.51,14.12,23.23,28.25,46.46,42.37,69.69,4.69,7.7,9.38,15.4,14.07,23.1.25.4.53.78.79,1.17.22.95.89,1.65,1.33,2.48.74,1.43,1.73,2.74,2.24,4.29Z"/>
  <path class="cls-8" d="M439.45,252.35c6.67,10.94,13.34,21.87,20,32.81,13.14,21.59,26.37,43.13,39.37,64.8,6.94,11.57,13.94,23.09,20.93,34.62,14.69,24.23,29.43,48.42,44.16,72.63,2.18,3.59,4.37,7.18,6.55,10.77.18.29.38.57.53.87.32.62.19,1.1-.57,1.06-.47-.02-.95,0-1.42,0-49.31,0-98.63,0-147.94,0-2.41,0-1.89.36-3.18-1.76-9.98-16.38-19.94-32.78-29.91-49.17-2.57-4.23-5.14-8.45-7.71-12.68-.25-.41-.47-.82-.7-1.24.34-.2.65-.48,1.01-.61,2.27-.82,4.36-1.96,6.23-3.48.31-.25.67-.43,1.01-.64.25.4.51.8.76,1.2,11.55,18.99,23.1,37.98,34.65,56.97.49.81.99,1.61,1.49,2.43.74-.43.76-1.18.99-1.78,4.85-12.58,9.67-25.17,14.49-37.76.97-2.53,1.91-5.07,2.86-7.61.46-.26.53-.75.7-1.19,4.04-10.53,8.09-21.06,12.12-31.6.82-2.14,1.79-4.22,2.33-6.46.08-.26.16-.52.26-.77,5.88-15.22,11.71-30.46,17.23-45.82.49-1.35.37-2.33-.37-3.54-10.92-17.86-21.8-35.75-32.68-53.64-3.13-5.15-6.25-10.31-9.37-15.47.17-.11.33-.25.52-.32,1.74-.59,3.41-1.33,4.93-2.37.21-.15.51-.18.76-.27Z"/>
  <path class="cls-8" d="M236.53,169.94c-3.18-5.21-6.36-10.41-9.54-15.62-5.51-9.03-11.01-18.06-16.51-27.09-.25-.41-.45-.84-.74-1.22-.47-.62-.43-1.16,0-1.82,1.64-2.57,3.24-5.17,4.82-7.78,9.76-16.04,19.52-32.09,29.28-48.14,12.26-20.16,24.52-40.32,36.78-60.47,1.37-2.26,2.74-4.52,4.13-6.77.23-.38.34-.89.94-1.04.51.33.73.92,1.04,1.42,8.46,13.9,16.92,27.8,25.37,41.7,10.64,17.5,21.26,35,31.91,52.49,6.42,10.53,12.87,21.04,19.31,31.57.25.4.45.83.68,1.25-.52.47-1.21.57-1.83.83-5.32,2.27-8.79,6.11-10.19,11.79-.4,1.6-.32,3.22-.44,4.83-1.74-.29-3.47-.59-5.21-.85-1.61-.24-3.23-.38-4.83-.64-6.22-.99-12.45-1.98-18.66-3.03-4.14-.7-8.32-1.18-12.4-2.21-.65-.16-1.31-.32-1.99-.14-.11.71.39,1.15.68,1.66,3.57,6.31,7.15,12.61,10.74,18.9.97,1.7.63,1.72,2.82,1.14,10.21-2.67,20.43-5.32,30.65-7.98,1.03,1.31,2.06,2.63,3.08,3.95.08.1.07.26.1.39-.4.09-.79.17-1.19.28-8.44,2.2-16.88,4.4-25.32,6.61-1.96.51-3.93,1.02-5.89,1.54-.55.15-.66.39-.4.88.25.48.53.95.79,1.42,7.83,13.76,15.65,27.53,23.48,41.29-.32.24-.61.52-.95.71-1.06.57-2.08,1.19-2.97,2.01-.24.22-.56.34-.85.5-8.16-14.35-16.33-28.7-24.49-43.05-.27-.47-.56-.93-.8-1.41-.23-.45-.58-.51-1.01-.42-.33.07-.66.14-.99.23-4.71,1.23-9.42,2.46-14.13,3.69-10.99,2.86-21.98,5.73-32.97,8.59-.67-1.51-.9-3.14-1.22-4.74.19-.08.37-.19.56-.24,13.69-3.57,27.38-7.13,41.07-10.7,1.7-.44,3.41-.87,5.11-1.32.44-.11.55-.35.35-.74-.18-.36-.38-.72-.58-1.07-3.05-5.36-6.1-10.71-9.15-16.07-1.24-2.18-2.49-4.35-3.71-6.54-.35-.64-.78-1.01-1.55-1.12-2.55-.36-5.08-.82-7.62-1.21-6.09-.95-12.18-1.85-18.26-2.83-7.5-1.2-14.98-2.45-22.48-3.67-10.1-1.65-20.21-3.29-30.31-4.92-.17-.03-.36.06-.6.11.16.73.6,1.26.94,1.83,7.25,11.93,14.51,23.86,21.76,35.79.42.69.81,1.41,1.21,2.11-.38.42-.91.58-1.4.8-2,.9-3.75,2.16-5.34,3.64-.35.32-.72.61-1.08.91Z"/>
  <path class="cls-4" d="M387.8,400.34c-.34.21-.7.39-1.01.64-1.87,1.53-3.96,2.66-6.23,3.48-.36.13-.68.4-1.01.61-.74.08-1.48.12-2.21.25-10.35,1.92-21.1-4.46-23.87-15.39-1.66-6.56-.36-12.6,3.72-18.03.4-.54.8-1.09,1.19-1.63.23-.13.5-.21.69-.39,1.94-1.87,4.15-3.32,6.6-4.43.24-.11.44-.29.66-.44.52-.13,1.04-.27,1.56-.4,2.89-.73,5.8-1.08,8.79-.6,1.74.28,3.39.84,5.07,1.29,1.02.74,2.09,1.35,3.32,1.67.47.39.92.79,1.4,1.16,4.63,3.67,7.35,8.41,8.05,14.3.16,1.35.09,2.71.22,4.05-.52.86-.36,1.88-.61,2.8-.8,3.79-2.6,7.04-5.23,9.86-.37.39-.72.79-1.08,1.19Z"/>
  <path class="cls-4" d="M267.6,175.17c.32,1.6.55,3.23,1.22,4.74-.05.19-.16.39-.15.58.16,2.36-.13,4.68-.65,6.97-.72,1.32-1.41,2.66-1.88,4.09-1,1.29-2,2.58-3,3.87-.53.14-.97.46-1.38.8-1.68,1.37-3.54,2.41-5.63,3.04-.46.14-.88.33-1.19.71-.95-.19-1.89.08-2.82.18-8.52.87-16.95-4.54-19.31-13.41-1.44-5.45-.55-10.6,2.68-15.28.34-.5.68-1.01,1.02-1.51.36-.3.74-.59,1.08-.91,1.6-1.49,3.35-2.74,5.34-3.64.49-.22,1.02-.38,1.4-.8.66-.14,1.32-.26,1.98-.41,8.91-1.99,16.87,2.58,20.37,9.41.28.54.6,1.06.9,1.58Z"/>
  <path class="cls-6" d="M254.95,199.97c.31-.39.73-.58,1.19-.71,2.08-.63,3.94-1.67,5.63-3.04.42-.34.85-.66,1.38-.8.32.52.65,1.03.97,1.55,8.41,13.82,16.81,27.63,25.22,41.45,7.28,11.97,14.55,23.94,21.83,35.91-.2.59-.75.72-1.24.91-2.14.84-4.08,1.98-5.69,3.66-.27.28-.64.47-.97.69-2.23-3.63-4.47-7.25-6.69-10.89-5.6-9.19-11.28-18.33-16.74-27.59-7.94-13.46-16.23-26.7-24.28-40.08-.21-.35-.4-.71-.59-1.06Z"/>
  <path class="cls-4" d="M351.53,145.88c.12-1.61.05-3.23.44-4.83,1.4-5.67,4.87-9.52,10.19-11.79.62-.26,1.3-.37,1.83-.83.61-.05,1.22-.07,1.82-.17,8.54-1.42,17.65,4.7,18.9,14.27.56,4.29-.42,8.18-2.81,11.75-.37.56-.73,1.13-1.1,1.69-.45.16-.8.45-1.12.79-.97,1.01-2.12,1.78-3.33,2.49-.4.23-.76.52-1.14.78-.2.05-.4.07-.59.15-3.26,1.39-6.64,1.51-10.08.95-1.17-.37-2.34-.74-3.51-1.12-1.34-.88-2.75-1.67-3.97-2.73-.14-.12-.37-.14-.55-.21-.03-.13-.03-.29-.1-.39-1.02-1.32-2.05-2.63-3.08-3.94-.13-.37-.24-.75-.39-1.11-.78-1.84-1.3-3.74-1.4-5.75Z"/>
  <path class="cls-1" d="M358.96,353.07c-3.74.11-7.47.12-11.21,0-.29-.54-.55-1.09-.87-1.6-5.13-8.45-10.47-16.78-15.35-25.37-4.28-7.53-8.98-14.8-13.31-22.3.17-.1.34-.24.52-.29,3.67-1.04,6.47-3.24,8.58-6.38.24-.35.52-.61.93-.73,2.6.48,5.2.94,7.78,1.45,10.02,1.97,20.04,3.97,30.06,5.95,9.96,1.96,19.92,3.91,29.88,5.86-.53,1.19-1.28,2.24-2.05,3.28-6.11-1.19-12.22-2.38-18.33-3.58-7.9-1.55-15.8-3.11-23.7-4.67-8.03-1.58-16.07-3.15-24.1-4.73-.29-.06-.61-.26-.92.13.33.57.67,1.15,1.02,1.73,9.99,16.43,19.98,32.87,29.97,49.3.38.63.73,1.29,1.09,1.94Z"/>
  <path class="cls-4" d="M439.45,252.35c-.26.09-.55.12-.76.27-1.52,1.04-3.19,1.77-4.93,2.37-.19.06-.35.21-.52.32-1.25.07-2.5.14-3.76.2-1.23-.15-2.45-.3-3.68-.45-.45-.15-.91-.28-1.35-.44-5.03-1.88-8.34-5.39-9.88-10.54-.29-.97-.43-1.98-.64-2.97.07-1.22.15-2.45.22-3.67.4-2.58,1.4-4.92,2.96-7.02.2-.27.34-.58.51-.87.23-.14.49-.25.68-.43,1.24-1.26,2.62-2.32,4.19-3.15.22-.12.35-.4.52-.6.63.01,1.18-.26,1.76-.45,9.05-2.95,18.63,2.73,20.3,12.13.92,5.2-.52,9.78-4.14,13.66-.5.54-1.17.93-1.49,1.64Z"/>
  <path class="cls-4" d="M328.26,296.39c-.41.12-.69.38-.93.73-2.11,3.13-4.91,5.34-8.58,6.38-.19.05-.35.19-.52.29-1.68.09-3.34.36-5.05.18-10.25-1.06-16.87-12.66-11.06-22.47.38-.64.76-1.27,1.14-1.9.33-.23.7-.41.97-.69,1.61-1.68,3.55-2.82,5.69-3.66.49-.19,1.04-.32,1.24-.91.47.4,1.02.24,1.54.17,1.61-.21,3.23-.2,4.82.09,1.05.19,2.08.52,3.12.79.98.71,1.97,1.41,3.16,1.74.37.39.74.78,1.12,1.15,1.13,1.08,2.12,2.28,2.87,3.66,2.2,4.03,2.47,8.22.95,12.54-.22.63-.68,1.19-.49,1.92Z"/>
  <path class="cls-1" d="M423.01,225.38c-.17.2-.3.49-.52.6-1.57.83-2.95,1.89-4.19,3.15-.18.19-.45.29-.68.43-.34-.51-.7-1-1.01-1.51-3.07-5.03-6.13-10.06-9.19-15.09-10.74-17.64-21.47-35.28-32.21-52.92.38-.26.74-.55,1.14-.78,1.2-.71,2.35-1.48,3.33-2.49.33-.34.67-.63,1.12-.79,4.02,6.59,8.05,13.17,12.07,19.76,9.82,16.13,19.63,32.27,29.45,48.41.25.4.47.82.7,1.23Z"/>
  <path class="cls-1" d="M366.32,365.02c-.22.15-.42.33-.66.44-2.45,1.1-4.66,2.56-6.6,4.43-.18.18-.46.26-.69.39-1.5-2.47-3.01-4.94-4.51-7.4.1-.53.32-1.02.61-1.48,1.46-2.32,2.91-4.66,4.37-6.98.14-.22.36-.39.55-.58.24.32.52.62.72.96,2.08,3.41,4.14,6.82,6.21,10.23Z"/>
  <path class="cls-3" d="M443.03,413.79c-3.58-1.49-6.62-3.7-8.92-6.83-3.96-5.39-5.24-11.34-3.57-17.87.38-.88.83-1.73.82-2.73.2-.35.42-.68.6-1.04,1.17-2.37,2.73-4.46,4.67-6.26.34-.31.6-.71.9-1.07,1.75-.76,3.34-1.82,4.92-2.87,1.3-.39,2.57-.84,3.89-1.15,3.22-.75,6.45-.67,9.66.14.72.18,1.41.49,2.18.42-.54,2.24-1.51,4.32-2.33,6.46-4.02,10.54-8.08,21.07-12.12,31.6-.17.44-.24.92-.7,1.19Z"/>
  <path class="cls-4" d="M347.99,209.07c2-.6,4.02-1.1,6.11-1.3,1.18.43,2.41.36,3.64.37.39.12.77.27,1.16.37,7.17,1.96,13.05,9.62,11.16,18.66-.11.52-.11,1.07-.16,1.61-.94.92-1.19,2.18-1.64,3.33-1.29,1.79-2.81,3.38-4.45,4.85-1.54.71-3.08,1.42-4.62,2.15-.17.08-.29.26-.43.39-.61.04-1.22.02-1.81.13-1.69.32-3.35.26-5.05,0-1.84-.28-3.51-.99-5.19-1.69-.93-.83-1.94-1.53-3.05-2.1-.3-.36-.6-.73-.91-1.07-3.83-4.29-5.04-9.25-3.79-14.84.12-.52.2-1.05.3-1.58.88-1.24,1.51-2.63,2.18-3.98.69-.62,1.27-1.32,1.79-2.08.29-.16.61-.28.85-.5.89-.82,1.91-1.44,2.97-2.01.34-.19.64-.47.95-.71Z"/>
  <path class="cls-4" d="M358.96,353.07c-3.74.11-7.47.12-11.21,0-.61.01-1.22.04-1.83.04-35.34.05-70.68-.03-106.02-.43-8.48-.1-16.96-.24-25.43-.35-.74,0-1.49-.12-2.22.11.22.95.89,1.65,1.33,2.48.74,1.43,1.73,2.74,2.24,4.29.4.62.83,1.23,1.21,1.87,4.47,7.59,8.89,15.22,13.41,22.78,17.49,29.27,35.78,58.06,53.71,87.06.24.4.43.86.94,1.13.77-.66,1.17-1.6,1.7-2.44,21.92-34.99,43.82-69.99,65.73-104.98.39-.63.72-1.31,1.34-1.76.1-.53.32-1.02.61-1.48,1.46-2.32,2.91-4.66,4.37-6.98.14-.22.36-.39.54-.58.17-.43.05-.7-.43-.76ZM290.45,408.81c-.77,1.25-1.91,1.89-3.43,1.84-1.06,0-1.96-.4-2.64-1.24-.26-.31-.49-.65-.72-.99-4.54-6.51-9.08-13.02-13.61-19.53-.27-.39-.56-.77-.78-1.19-.72-1.34-.46-2.86.65-3.9,1.58-1.48,4.21-1.4,5.68.19.32.35.58.75.85,1.14,4.47,6.39,8.93,12.79,13.4,19.18.16.22.31.44.46.67.84,1.24.94,2.54.15,3.82ZM301.01,402c-1.42,1.12-3.35,1.02-4.62-.27-.28-.29-.51-.63-.75-.96-4.51-6.44-9.02-12.89-13.53-19.33-.12-.17-.23-.33-.34-.51-.68-1.06-.82-2.15-.15-3.26.69-1.15,1.77-1.62,3.06-1.7,1.14.07,2.12.46,2.87,1.34.3.36.57.76.84,1.15,4.2,6,8.41,11.99,12.61,17.99.27.39.57.77.8,1.18.91,1.59.6,3.29-.77,4.37Z"/>
  <path class="cls-2" d="M403.71,334.37c-6.04,10.58-12.08,21.16-18.12,31.74-.17.29-.35.58-.53.87-1.23-.32-2.3-.93-3.32-1.67,5.8-10.17,11.61-20.34,17.41-30.51.37-.65.7-1.31,1.05-1.97,1.17.52,2.34,1.03,3.51,1.55Z"/>
  <path class="cls-2" d="M394.72,386.5c11.26-.05,22.52-.1,33.79-.14.95,0,1.9.01,2.85.02,0,.99-.44,1.85-.82,2.73-3.26,0-6.51.01-9.77.03-8.89.05-17.77.11-26.66.17.25-.92.09-1.93.61-2.8Z"/>
  <path class="cls-7" d="M339.25,218.35c-14.85-5.43-29.71-10.87-44.56-16.3-9.33-3.41-18.66-6.82-27.99-10.23-.19-.07-.37-.17-.55-.26.47-1.44,1.15-2.77,1.87-4.09,6.27,2.31,12.54,4.62,18.82,6.92,17.82,6.52,35.64,13.03,53.46,19.55.38.14.76.29,1.14.44-.67,1.36-1.3,2.74-2.18,3.98Z"/>
  <path class="cls-2" d="M364.55,161.12c-.36,2.34-.73,4.68-1.07,7.02-.66,4.49-1.3,8.98-1.94,13.46-.56,3.89-1.12,7.77-1.68,11.66-.71,4.96-1.41,9.92-2.12,14.88-1.23-.01-2.46.06-3.64-.37.77-5.28,1.54-10.57,2.3-15.85.6-4.22,1.18-8.44,1.78-12.65.6-4.22,1.23-8.43,1.85-12.64.33-2.21.67-4.41,1.01-6.62,1.17.37,2.34.74,3.51,1.12Z"/>
  <path class="cls-4" d="M395.99,309.66c.56-.57,1.12-1.14,1.67-1.72,1.45-.83,2.73-1.93,4.26-2.62.19-.09.28-.43.41-.65.44.31.9.12,1.34,0,.9-.24,1.81-.41,2.74-.51,1.74-.19,3.45.02,5.17.22,1.12.51,2.25.97,3.47,1.2.55.39,1.1.77,1.66,1.16,7.96,5.45,9.04,16.71,2.26,23.59-.43.43-.87.86-1.3,1.28-1.67.9-3.34,1.81-5.01,2.71-.99.16-1.97.38-2.97.47-2.01.19-4.01.06-5.98-.43-1.17-.52-2.34-1.03-3.51-1.55-.81-.61-1.7-1.14-2.43-1.83-4.8-4.53-6.18-10-4.4-16.31.17-.59.38-1.16.57-1.73.76-1.04,1.52-2.09,2.05-3.28Z"/>
  <path class="cls-2" d="M411.58,304.39c1.99-6.82,3.99-13.63,5.96-20.46,2.67-9.23,5.32-18.46,7.98-27.69.11-.39.19-.79.28-1.18,1.23.15,2.45.3,3.68.45-1.01,3.58-1.99,7.16-3.02,10.73-3.65,12.67-7.31,25.33-10.97,37.99-.13.45-.29.9-.43,1.35-1.22-.22-2.35-.69-3.47-1.2Z"/>
  <path class="cls-2" d="M413.93,241.11c-9.73-1.9-19.47-3.79-29.2-5.7-5.49-1.08-10.98-2.19-16.48-3.29.45-1.16.7-2.41,1.64-3.33,4.12.79,8.25,1.58,12.37,2.38,6.58,1.29,13.16,2.58,19.73,3.88,4.05.8,8.11,1.6,12.16,2.39-.07,1.22-.15,2.45-.22,3.67Z"/>
  <path class="cls-2" d="M346.7,237.94c-6.77,11.6-13.55,23.21-20.32,34.81-.85,1.46-1.71,2.91-2.57,4.37-1.19-.33-2.18-1.03-3.16-1.74,5.77-9.91,11.54-19.83,17.3-29.74,1.9-3.27,3.8-6.53,5.7-9.8,1.11.57,2.12,1.27,3.05,2.1Z"/>
  <path class="cls-1" d="M412.66,334.32c1.67-.9,3.34-1.81,5.01-2.71,6.62,11.63,13.25,23.25,19.87,34.88,1.64,2.88,3.27,5.76,4.9,8.64-1.58,1.05-3.16,2.11-4.92,2.87-2.62-4.57-5.24-9.14-7.85-13.72-5.62-9.86-11.23-19.73-16.85-29.59-.07-.12-.11-.24-.17-.37Z"/>
  <path class="cls-1" d="M363.81,236.97c1.02,1.75,2.05,3.5,3.05,5.26,11.54,20.28,23.07,40.56,34.6,60.84.3.53.58,1.07.87,1.6-.13.22-.22.56-.41.65-1.53.69-2.82,1.79-4.26,2.62-2.88-5.05-5.77-10.1-8.65-15.15-9.71-17.05-19.41-34.09-29.11-51.14-.4-.7-.77-1.43-1.15-2.14.14-.13.26-.31.43-.39,1.54-.73,3.08-1.43,4.62-2.15Z"/>
</svg>